<svg width="246" height="204" xmlns="http://www.w3.org/2000/svg" viewBox="0 0 88.18 118.9"><defs><style>.cls-1{fill:#9d0003;}.cls-2{fill:#f0b90b;}</style></defs><title>julb svg</title><g id="Layer_2" data-name="Layer 2"><g id="Layer_5" data-name="Layer 5"><path class="cls-1" d="M51.26.23a7.7,7.7,0,0,1,4.59,3.6c2.84,4.77,1.39,9.27-2.19,14.06C42.88,32.32,32.38,47,21.84,61.55,13.23,73.49,14.2,85.18,24.5,95.12a28,28,0,0,0,36.27,2.54C72.3,89.1,75.23,76.52,68.15,63.94c-3.07-5.44-4.7-10.6,1.91-13.93,5.92-3,9.5.76,12.4,5.89,10.59,18.77,6.25,40.44-11.07,53.85a45.22,45.22,0,0,1-57.61-2.54C-2.28,92.38-4.53,70.67,8.24,52.8Q26.1,27.8,44.12,2.88A6.77,6.77,0,0,1,48,.18,6.52,6.52,0,0,1,51.26.23Z"/><rect class="cls-2" x="54.73" y="69.74" width="4.84" height="4.9" transform="translate(-34.26 61.18) rotate(-44.77)"/><polygon class="cls-2" points="50.81 74.48 45.06 80.19 39.29 74.38 35.54 78.1 45.03 87.66 54.53 78.23 50.81 74.48"/><polygon class="cls-2" points="45.12 64.13 50.73 69.78 54.48 66.06 45.16 56.66 35.69 66.04 39.41 69.79 45.12 64.13"/><rect class="cls-2" x="30.57" y="69.71" width="4.81" height="4.75" transform="translate(-41.2 44.13) rotate(-44.77)"/><rect class="cls-2" x="42.58" y="69.65" width="5.02" height="5.02" transform="translate(-37.74 52.68) rotate(-44.77)"/></g></g></svg>